<?xml version="1.0" encoding="UTF-8" standalone="no"?>
<!-- Created with Inkscape (http://www.inkscape.org/) -->

<svg
   width="97.681152mm"
   height="85.576294mm"
   viewBox="0 0 97.681151 85.576291"
   version="1.1"
   id="svg1"
   xml:space="preserve"
   inkscape:export-filename="bg.jpg"
   inkscape:export-xdpi="96"
   inkscape:export-ydpi="96"
   inkscape:version="1.3.2 (091e20e, 2023-11-25)"
   sodipodi:docname="TFL.svg"
   xmlns:inkscape="http://www.inkscape.org/namespaces/inkscape"
   xmlns:sodipodi="http://sodipodi.sourceforge.net/DTD/sodipodi-0.dtd"
   xmlns:xlink="http://www.w3.org/1999/xlink"
   xmlns="http://www.w3.org/2000/svg"
   xmlns:svg="http://www.w3.org/2000/svg"><sodipodi:namedview
     id="namedview1"
     pagecolor="#ffffff"
     bordercolor="#000000"
     borderopacity="0.25"
     inkscape:showpageshadow="2"
     inkscape:pageopacity="0.0"
     inkscape:pagecheckerboard="0"
     inkscape:deskcolor="#d1d1d1"
     inkscape:document-units="mm"
     inkscape:zoom="0.84096521"
     inkscape:cx="457.80729"
     inkscape:cy="220.57987"
     inkscape:window-width="1376"
     inkscape:window-height="762"
     inkscape:window-x="0"
     inkscape:window-y="25"
     inkscape:window-maximized="0"
     inkscape:current-layer="layer1"
     inkscape:export-bgcolor="#ffffffff"><inkscape:page
       x="0"
       y="0"
       width="97.681152"
       height="85.576294"
       id="page1"
       margin="0"
       bleed="0" /><inkscape:page
       x="102.56568"
       y="0.94385591"
       width="97.846399"
       height="81.171608"
       id="page2"
       inkscape:export-filename="./icon.ico"
       inkscape:export-xdpi="25.959057"
       inkscape:export-ydpi="25.959057" /></sodipodi:namedview><defs
     id="defs1"><linearGradient
       id="linearGradient9"
       inkscape:collect="always"><stop
         style="stop-color:#01008b;stop-opacity:1;"
         offset="0"
         id="stop9" /><stop
         style="stop-color:#01008b;stop-opacity:0;"
         offset="1"
         id="stop10" /></linearGradient><linearGradient
       inkscape:collect="always"
       xlink:href="#linearGradient9"
       id="linearGradient10"
       x1="105.21065"
       y1="112.32841"
       x2="104.2872"
       y2="186.63306"
       gradientUnits="userSpaceOnUse" /></defs><g
     inkscape:label="Layer 1"
     inkscape:groupmode="layer"
     id="layer1"
     transform="translate(-56.316738,-104.45339)"><path
       style="display:inline;fill:url(#linearGradient10)"
       d="M 100.40821,183.14983 C 86.77835,181.22529 75.691688,172.017 71.342321,159.00845 l -1.305876,-3.90575 -4.437326,-0.0987 -4.437326,-0.0987 v -7.03448 -7.03447 l 4.423075,-0.0987 4.423076,-0.0987 1.2096,-3.60696 c 1.426475,-4.25367 2.152336,-5.74376 4.479974,-9.1968 4.69929,-6.97136 12.170188,-12.18301 20.700113,-14.44026 2.914968,-0.77138 4.139299,-0.89797 8.684999,-0.89797 4.59088,0 5.75885,0.12321 8.81944,0.93035 12.28628,3.24016 21.96018,12.50735 25.36112,24.29491 l 0.84153,2.91673 4.44937,0.0987 4.44937,0.0987 v 7.03447 7.03448 l -4.44937,0.0987 -4.44937,0.0987 -0.8422,2.91902 c -1.60347,5.55759 -4.64195,10.63555 -8.92947,14.92307 -6.42054,6.42054 -14.7415,10.04167 -23.83931,10.37445 -2.13431,0.0781 -4.8728,0.002 -6.08553,-0.16941 z m 10.28024,-13.0442 c 4.23984,-1.08436 7.37098,-2.89943 10.63849,-6.16695 2.72244,-2.72244 5.45152,-6.95088 5.45152,-8.4466 0,-0.51304 -2.02194,-0.56577 -21.69583,-0.56577 -12.216593,0 -21.695837,0.13531 -21.695837,0.3097 0,1.69245 3.638688,7.20687 6.410701,9.7154 2.41732,2.18755 6.833834,4.52184 9.993466,5.28193 3.11692,0.74981 7.67529,0.69639 10.89749,-0.12771 z m 16.09001,-29.85621 c 0,-0.31117 -0.58787,-1.70023 -1.30638,-3.0868 -1.77892,-3.43295 -6.08024,-7.73024 -9.52373,-9.51481 -10.59614,-5.4914 -23.404854,-2.29673 -29.860038,7.44751 -1.461077,2.20552 -2.701519,4.68969 -2.701519,5.41018 0,0.17439 9.479244,0.3097 21.695837,0.3097 19.67389,0 21.69583,-0.0527 21.69583,-0.56578 z"
       id="path8" /><path
       style="display:inline;fill:#01008b;fill-opacity:0.96470588"
       d="m 202.68826,180.46547 c -13.62986,-1.92454 -24.71653,-11.13283 -29.06589,-24.14138 l -1.30588,-3.90575 -4.43733,-0.0987 -4.43732,-0.0987 v -7.03448 -7.03447 l 4.42307,-0.0987 4.42308,-0.0987 1.2096,-3.60696 c 1.42647,-4.25367 2.15234,-5.74376 4.47997,-9.1968 4.69929,-6.97136 12.17019,-12.18301 20.70012,-14.44026 2.91496,-0.77138 4.1393,-0.89797 8.685,-0.89797 4.59088,0 5.75885,0.12321 8.81944,0.93035 12.28628,3.24016 21.96018,12.50735 25.36112,24.29491 l 0.84153,2.91673 4.44937,0.0987 4.44937,0.0987 v 7.03447 7.03448 l -4.44937,0.0987 -4.44937,0.0987 -0.8422,2.91902 c -1.60347,5.55759 -4.64195,10.63555 -8.92947,14.92307 -6.42054,6.42054 -14.7415,10.04167 -23.83931,10.37445 -2.13431,0.0781 -4.8728,0.002 -6.08553,-0.16941 z m 10.28024,-13.0442 c 4.23984,-1.08436 7.37098,-2.89943 10.63849,-6.16695 2.72244,-2.72244 5.45152,-6.95088 5.45152,-8.4466 0,-0.51304 -2.02194,-0.56577 -21.69583,-0.56577 -12.2166,0 -21.69584,0.13531 -21.69584,0.3097 0,1.69245 3.63869,7.20687 6.4107,9.7154 2.41732,2.18755 6.83383,4.52184 9.99347,5.28193 3.11692,0.74981 7.67529,0.69639 10.89749,-0.12771 z m 16.09001,-29.85621 c 0,-0.31117 -0.58787,-1.70023 -1.30638,-3.0868 -1.77892,-3.43295 -6.08024,-7.73024 -9.52373,-9.51481 -10.59614,-5.4914 -23.40486,-2.29673 -29.86004,7.44751 -1.46108,2.20552 -2.70152,4.68969 -2.70152,5.41018 0,0.17439 9.47924,0.3097 21.69584,0.3097 19.67389,0 21.69583,-0.0527 21.69583,-0.56578 z"
       id="path8-4" /><text
       xml:space="preserve"
       style="font-style:normal;font-variant:normal;font-weight:bold;font-stretch:condensed;font-size:29.2959px;font-family:'Helvetica Neue';-inkscape-font-specification:'Helvetica Neue, Bold Condensed';font-variant-ligatures:normal;font-variant-caps:normal;font-variant-numeric:normal;font-variant-east-asian:normal;text-align:end;text-anchor:end;fill:#69c1c3;fill-opacity:1;stroke:none;stroke-width:0.499999;stroke-linecap:round;stroke-miterlimit:40"
       x="161.40627"
       y="236.29959"
       id="text2"
       transform="scale(1.5552887,0.64296744)"><tspan
         sodipodi:role="line"
         id="tspan2"
         style="font-style:normal;font-variant:normal;font-weight:bold;font-stretch:condensed;font-size:29.2959px;font-family:'Helvetica Neue';-inkscape-font-specification:'Helvetica Neue, Bold Condensed';font-variant-ligatures:normal;font-variant-caps:normal;font-variant-numeric:normal;font-variant-east-asian:normal;fill:#69c1c3;fill-opacity:1;stroke:none;stroke-width:0.5"
         x="161.40627"
         y="236.29959">2048</tspan></text></g></svg>
